<svg xmlns="http://www.w3.org/2000/svg" width="1600" height="900" viewBox="0 0 1600 900"><style>.bg{fill:#f6f6f1}.title{font:700 48px Georgia,serif;fill:#102327}.sub{font:18px Arial,sans-serif;fill:#607275}.l{stroke:#d9e0db;stroke-width:2}.h{font:700 23px Arial,sans-serif;fill:#102327}.t{font:16px Arial,sans-serif;fill:#607275}.w{font:12px Arial,sans-serif;fill:#157f91}.d{fill:#d7f0ec}.m{fill:#dfeaf5}.p{fill:#eee6fb}</style><rect class="bg" width="1600" height="900"/><text x="100" y="100" class="title">12-week team roadmap</text><text x="100" y="140" class="sub">One pilot basin · one verified data flow · one defensible model · one deployable demonstration</text><g class="l"><path d="M100 250H1500M100 410H1500M100 570H1500M100 730H1500M350 205V730M650 205V730M950 205V730M1250 205V730"/></g><text x="120" y="300" class="h">Person 1</text><text x="120" y="327" class="t">Data &amp; hydrology</text><text x="120" y="460" class="h">Person 2</text><text x="120" y="487" class="t">ML &amp; decisions</text><text x="120" y="620" class="h">Person 3</text><text x="120" y="647" class="t">Platform &amp; product</text><g class="w"><text x="370" y="225">WEEKS 1–3</text><text x="670" y="225">WEEKS 4–6</text><text x="970" y="225">WEEKS 7–9</text><text x="1270" y="225">WEEKS 10–12</text></g><rect class="d" x="370" y="275" width="250" height="70" rx="8"/><text x="390" y="318" class="t">Sources &amp; data register</text><rect class="d" x="670" y="275" width="250" height="70" rx="8"/><text x="690" y="318" class="t">Cleaning &amp; QA</text><rect class="d" x="970" y="275" width="250" height="70" rx="8"/><text x="990" y="318" class="t">EDA &amp; assumptions</text><rect class="d" x="1270" y="275" width="190" height="70" rx="8"/><text x="1290" y="318" class="t">Data pipeline</text><rect class="m" x="370" y="435" width="250" height="70" rx="8"/><text x="390" y="478" class="t">Problem &amp; baseline</text><rect class="m" x="670" y="435" width="250" height="70" rx="8"/><text x="690" y="478" class="t">Forecast model</text><rect class="m" x="970" y="435" width="250" height="70" rx="8"/><text x="990" y="478" class="t">Uncertainty &amp; rules</text><rect class="m" x="1270" y="435" width="190" height="70" rx="8"/><text x="1290" y="478" class="t">Model handoff</text><rect class="p" x="370" y="595" width="250" height="70" rx="8"/><text x="390" y="638" class="t">App review &amp; plan</text><rect class="p" x="670" y="595" width="250" height="70" rx="8"/><text x="690" y="638" class="t">Data-backed view</text><rect class="p" x="970" y="595" width="250" height="70" rx="8"/><text x="990" y="638" class="t">Model integration</text><rect class="p" x="1270" y="595" width="190" height="70" rx="8"/><text x="1290" y="638" class="t">Release rehearsal</text><text x="100" y="830" class="sub">Figure 4. Review progress every Friday; no model or feature is complete without documented evidence and testing.</text></svg>
